<mxfile host="app.diagrams.net" agent="Mozilla/5.0 (Windows NT 10.0; Win64; x64) AppleWebKit/537.36 (KHTML, like Gecko) Chrome/130.0.0.0 Safari/537.36" version="24.8.3">
  <diagram name="第 1 页" id="hN5Q6s4lvQXBE9WuYC1i">
    <mxGraphModel dx="1134" dy="589" grid="1" gridSize="10" guides="1" tooltips="1" connect="1" arrows="1" fold="1" page="1" pageScale="1" pageWidth="827" pageHeight="1169" math="0" shadow="0">
      <root>
        <mxCell id="0" />
        <mxCell id="1" parent="0" />
        <mxCell id="IWWvA7ojfFVCFD7wFxc9-2" value="" style="rounded=0;whiteSpace=wrap;html=1;fillColor=#00CC00;strokeColor=#FFFFFF;" vertex="1" parent="1">
          <mxGeometry x="143" y="280" width="550" height="80" as="geometry" />
        </mxCell>
        <mxCell id="IWWvA7ojfFVCFD7wFxc9-4" value="业务层" style="text;html=1;align=center;verticalAlign=middle;whiteSpace=wrap;rounded=0;" vertex="1" parent="1">
          <mxGeometry x="63" y="300" width="60" height="30" as="geometry" />
        </mxCell>
        <mxCell id="IWWvA7ojfFVCFD7wFxc9-6" value="启动" style="rounded=1;whiteSpace=wrap;html=1;" vertex="1" parent="1">
          <mxGeometry x="163" y="300" width="90" height="35" as="geometry" />
        </mxCell>
        <mxCell id="IWWvA7ojfFVCFD7wFxc9-9" value="我的" style="rounded=1;whiteSpace=wrap;html=1;" vertex="1" parent="1">
          <mxGeometry x="593" y="300" width="90" height="35" as="geometry" />
        </mxCell>
        <mxCell id="IWWvA7ojfFVCFD7wFxc9-10" value="登录" style="rounded=1;whiteSpace=wrap;html=1;" vertex="1" parent="1">
          <mxGeometry x="263" y="300" width="90" height="35" as="geometry" />
        </mxCell>
        <mxCell id="IWWvA7ojfFVCFD7wFxc9-11" value="文件" style="rounded=1;whiteSpace=wrap;html=1;" vertex="1" parent="1">
          <mxGeometry x="373" y="300" width="90" height="35" as="geometry" />
        </mxCell>
        <mxCell id="IWWvA7ojfFVCFD7wFxc9-12" value="备份" style="rounded=1;whiteSpace=wrap;html=1;" vertex="1" parent="1">
          <mxGeometry x="483" y="300" width="90" height="35" as="geometry" />
        </mxCell>
        <mxCell id="IWWvA7ojfFVCFD7wFxc9-14" value="" style="rounded=0;whiteSpace=wrap;html=1;fillColor=#66FF66;strokeColor=#FFFFFF;" vertex="1" parent="1">
          <mxGeometry x="146" y="375" width="544" height="95" as="geometry" />
        </mxCell>
        <mxCell id="IWWvA7ojfFVCFD7wFxc9-15" value="&lt;h3&gt;&lt;b&gt;&lt;font color=&quot;#ffffff&quot;&gt;功能组件&lt;/font&gt;&lt;/b&gt;&lt;/h3&gt;" style="text;html=1;align=center;verticalAlign=middle;whiteSpace=wrap;rounded=0;" vertex="1" parent="1">
          <mxGeometry x="393" y="380" width="60" height="30" as="geometry" />
        </mxCell>
        <mxCell id="IWWvA7ojfFVCFD7wFxc9-18" value="视频播放器" style="rounded=1;whiteSpace=wrap;html=1;" vertex="1" parent="1">
          <mxGeometry x="313" y="420" width="80" height="35" as="geometry" />
        </mxCell>
        <mxCell id="IWWvA7ojfFVCFD7wFxc9-19" value="音乐播放器" style="rounded=1;whiteSpace=wrap;html=1;" vertex="1" parent="1">
          <mxGeometry x="168" y="420" width="80" height="35" as="geometry" />
        </mxCell>
        <mxCell id="IWWvA7ojfFVCFD7wFxc9-20" value="文件浏览" style="rounded=1;whiteSpace=wrap;html=1;" vertex="1" parent="1">
          <mxGeometry x="453" y="420" width="80" height="35" as="geometry" />
        </mxCell>
        <mxCell id="IWWvA7ojfFVCFD7wFxc9-22" value="图片浏览" style="rounded=1;whiteSpace=wrap;html=1;" vertex="1" parent="1">
          <mxGeometry x="583" y="420" width="80" height="35" as="geometry" />
        </mxCell>
        <mxCell id="IWWvA7ojfFVCFD7wFxc9-25" value="" style="rounded=0;whiteSpace=wrap;html=1;fillColor=#66FF66;strokeColor=#FFFFFF;" vertex="1" parent="1">
          <mxGeometry x="143" y="485" width="547" height="95" as="geometry" />
        </mxCell>
        <mxCell id="IWWvA7ojfFVCFD7wFxc9-26" value="&lt;h3&gt;&lt;b&gt;&lt;font color=&quot;#ffffff&quot;&gt;基础组件&lt;/font&gt;&lt;/b&gt;&lt;/h3&gt;" style="text;html=1;align=center;verticalAlign=middle;whiteSpace=wrap;rounded=0;" vertex="1" parent="1">
          <mxGeometry x="388" y="485" width="60" height="30" as="geometry" />
        </mxCell>
        <mxCell id="IWWvA7ojfFVCFD7wFxc9-27" value="上传下载" style="rounded=1;whiteSpace=wrap;html=1;" vertex="1" parent="1">
          <mxGeometry x="173" y="530" width="80" height="35" as="geometry" />
        </mxCell>
        <mxCell id="IWWvA7ojfFVCFD7wFxc9-28" value="分享" style="rounded=1;whiteSpace=wrap;html=1;" vertex="1" parent="1">
          <mxGeometry x="374" y="530" width="80" height="35" as="geometry" />
        </mxCell>
        <mxCell id="IWWvA7ojfFVCFD7wFxc9-30" value="view" style="rounded=1;whiteSpace=wrap;html=1;" vertex="1" parent="1">
          <mxGeometry x="583" y="530" width="80" height="35" as="geometry" />
        </mxCell>
        <mxCell id="IWWvA7ojfFVCFD7wFxc9-32" value="组件层" style="text;html=1;align=center;verticalAlign=middle;whiteSpace=wrap;rounded=0;" vertex="1" parent="1">
          <mxGeometry x="53" y="480" width="60" height="30" as="geometry" />
        </mxCell>
        <mxCell id="IWWvA7ojfFVCFD7wFxc9-37" value="&lt;b&gt;路&lt;/b&gt;&lt;div&gt;&lt;b&gt;由&lt;/b&gt;&lt;/div&gt;" style="rounded=0;whiteSpace=wrap;html=1;fillColor=#3DFF77;strokeColor=none;" vertex="1" parent="1">
          <mxGeometry x="713" y="280" width="60" height="300" as="geometry" />
        </mxCell>
        <mxCell id="IWWvA7ojfFVCFD7wFxc9-39" value="" style="rounded=0;whiteSpace=wrap;html=1;fillColor=#FF6666;" vertex="1" parent="1">
          <mxGeometry x="143" y="607.5" width="324" height="90" as="geometry" />
        </mxCell>
        <mxCell id="IWWvA7ojfFVCFD7wFxc9-40" value="" style="rounded=0;whiteSpace=wrap;html=1;fillColor=#FF6666;" vertex="1" parent="1">
          <mxGeometry x="480" y="610" width="284" height="87.5" as="geometry" />
        </mxCell>
        <mxCell id="IWWvA7ojfFVCFD7wFxc9-41" value="基础层" style="text;html=1;align=center;verticalAlign=middle;whiteSpace=wrap;rounded=0;" vertex="1" parent="1">
          <mxGeometry x="53" y="630" width="60" height="30" as="geometry" />
        </mxCell>
        <mxCell id="IWWvA7ojfFVCFD7wFxc9-43" value="tingyun" style="rounded=1;whiteSpace=wrap;html=1;" vertex="1" parent="1">
          <mxGeometry x="163" y="650" width="80" height="35" as="geometry" />
        </mxCell>
        <mxCell id="IWWvA7ojfFVCFD7wFxc9-45" value="&lt;h3&gt;&lt;b&gt;&lt;font color=&quot;#ffffff&quot;&gt;第三方 sdk&lt;/font&gt;&lt;/b&gt;&lt;/h3&gt;" style="text;html=1;align=center;verticalAlign=middle;whiteSpace=wrap;rounded=0;" vertex="1" parent="1">
          <mxGeometry x="253" y="610" width="80" height="30" as="geometry" />
        </mxCell>
        <mxCell id="IWWvA7ojfFVCFD7wFxc9-46" value="&lt;h3&gt;&lt;b&gt;&lt;font color=&quot;#ffffff&quot;&gt;sdk&lt;/font&gt;&lt;/b&gt;&lt;/h3&gt;" style="text;html=1;align=center;verticalAlign=middle;whiteSpace=wrap;rounded=0;" vertex="1" parent="1">
          <mxGeometry x="603" y="610" width="60" height="30" as="geometry" />
        </mxCell>
        <mxCell id="IWWvA7ojfFVCFD7wFxc9-47" value="tbs" style="rounded=1;whiteSpace=wrap;html=1;" vertex="1" parent="1">
          <mxGeometry x="263" y="650" width="80" height="35" as="geometry" />
        </mxCell>
        <mxCell id="IWWvA7ojfFVCFD7wFxc9-49" value="&lt;div style=&quot;background-color:#ffffff;color:#080808&quot;&gt;&lt;pre style=&quot;font-family:&#39;Microsoft YaHei UI&#39;;font-size:9.0pt;&quot;&gt;Rangers&lt;/pre&gt;&lt;/div&gt;" style="rounded=1;whiteSpace=wrap;html=1;" vertex="1" parent="1">
          <mxGeometry x="368" y="650" width="80" height="35" as="geometry" />
        </mxCell>
        <mxCell id="IWWvA7ojfFVCFD7wFxc9-51" value="network" style="rounded=1;whiteSpace=wrap;html=1;" vertex="1" parent="1">
          <mxGeometry x="593" y="650" width="90" height="35" as="geometry" />
        </mxCell>
        <mxCell id="IWWvA7ojfFVCFD7wFxc9-52" value="base" style="rounded=1;whiteSpace=wrap;html=1;" vertex="1" parent="1">
          <mxGeometry x="493" y="650" width="80" height="35" as="geometry" />
        </mxCell>
        <mxCell id="IWWvA7ojfFVCFD7wFxc9-53" value="util" style="rounded=1;whiteSpace=wrap;html=1;" vertex="1" parent="1">
          <mxGeometry x="700" y="650" width="60" height="35" as="geometry" />
        </mxCell>
        <mxCell id="IWWvA7ojfFVCFD7wFxc9-63" value="&lt;h1 style=&quot;margin-top: 0px;&quot;&gt;&lt;br&gt;&lt;/h1&gt;" style="text;html=1;whiteSpace=wrap;overflow=hidden;rounded=0;dashed=1;strokeColor=default;" vertex="1" parent="1">
          <mxGeometry x="130" y="370" width="570" height="220" as="geometry" />
        </mxCell>
        <mxCell id="IWWvA7ojfFVCFD7wFxc9-66" value="&lt;h1 style=&quot;margin-top: 0px;&quot;&gt;&lt;br&gt;&lt;/h1&gt;" style="text;html=1;whiteSpace=wrap;overflow=hidden;rounded=0;strokeColor=default;dashed=1;" vertex="1" parent="1">
          <mxGeometry x="130" y="600" width="640" height="113.75" as="geometry" />
        </mxCell>
      </root>
    </mxGraphModel>
  </diagram>
</mxfile>
